<svg xmlns="http://www.w3.org/2000/svg" viewBox="0 0 82.35 28.78"><defs><style>.cls-1{fill:#000000;}</style></defs><title>venus</title><g id="Layer_2" data-name="Layer 2"><g id="Layer_1-2" data-name="Layer 1"><path class="cls-1" d="M25.77,5.73c-.21-3-1.86-6-5.07-5.72-1.71.13-2.8,1-3,2.35a9.49,9.49,0,0,1,3,5.81,20.5,20.5,0,0,1-2.34,10.58c-1.56,3-3.58,5-5.15,5.14H13c-1.06,0-1.73-.75-1.82-2a12.34,12.34,0,0,1,.85-4.8c.38-1.16.73-2.23,1.06-3.21,1.54-4.58,2.46-7.34,2.3-9.72C15.19,1.47,14,.24,11.61.24L11,.26C6.91.58-.35,6.67,0,11.88c.2,2.83,2.53,4.73,5.8,4.73h.34a.23.23,0,0,1,.19.1.26.26,0,0,1,0,.23A16.29,16.29,0,0,0,5.32,22.8c.28,4,2.19,6,5.68,6l.78,0C18.89,28.2,26.47,15.72,25.77,5.73ZM8.53,10.87c-.32.83-.66,1.74-1,2.71a.25.25,0,0,1-.13.14l-.09,0-.09,0c-2-.9-2.8-1.74-2.89-3.11C4.2,8.94,5.42,7.33,6.16,6.51A6.1,6.1,0,0,1,9,4.49c.75-.06.95.45,1,1.27C10.08,6.81,9.43,8.51,8.53,10.87Z"/><polygon class="cls-1" points="30.24 14.91 30.24 14.91 30.24 14.91 30.24 14.91"/><path class="cls-1" d="M39.17,19.39a1,1,0,0,0-1.09-.91c-1.84,3.38-4.88,5.87-7.43,6.07-1.72.12-2.06-1.25-2.17-2.74a.25.25,0,0,1,.17-.26C33,20.17,35,17.86,34.72,14.49c-.16-2.29-1.26-3.39-3.38-3.39a4.26,4.26,0,0,0-.5,0c-3.3.25-7.32,6.17-6.93,11.87.29,4.08,2.08,6,5.37,5.77C33.78,28.41,39.36,22.08,39.17,19.39Zm-9-4.73h.06c.44,0,.93.38,1,1.42.11,1.64-.69,2.66-2.45,3.13h-.05a.25.25,0,0,1-.15,0,.27.27,0,0,1-.09-.2C28.57,16.38,29.42,14.72,30.18,14.66Z"/><path class="cls-1" d="M53.2,24.77c1.86-2.1,3.11-4.31,3-5.36a1.09,1.09,0,0,0-1.12-.92c-2,3.44-4.12,5.63-5,5.7H50c-.24,0-.66-.1-.71-.76a19.33,19.33,0,0,1,1.14-4.55c.11-.35.22-.67.31-1a11.15,11.15,0,0,0,.75-4.15,2.12,2.12,0,0,0-2.43-2.18c-.7.05-3.22.7-6.07,6.84a.23.23,0,0,1-.31.11.24.24,0,0,1-.11-.32,14.61,14.61,0,0,0,1-5.44c-.07-1-.32-1.25-1.12-1.25h-.29c-.95.07-2.19,1-3.24,2.44a6.92,6.92,0,0,0-1.57,3.92,6.45,6.45,0,0,0,.5,2.22.22.22,0,0,1,0,.18A14,14,0,0,0,37.38,25c.19,2.2,1.77,3.91,3.58,3.77.75-.06.95-.17,1.19-.45a51.25,51.25,0,0,1,.33-7.18.3.3,0,0,1,0-.1c1.38-2.34,2.58-2.92,2.93-2.95a.62.62,0,0,1,.71.65,9,9,0,0,1-.43,2A18.11,18.11,0,0,0,44.82,26c.14,2.06.92,2.77,2.82,2.62C49.05,28.53,51.18,27.05,53.2,24.77Z"/><path class="cls-1" d="M72.66,18.6c0-.53-.63-.84-1.19-.84h0C69.58,21,67.85,23,66.82,23.05h-.09c-.3,0-.66-.14-.71-.8a20.39,20.39,0,0,1,1-4c.29-.92.59-1.87.8-2.64a8.36,8.36,0,0,0,.47-2.92,3.1,3.1,0,0,0-3.47-2.56,1.73,1.73,0,0,0-1.25.66A39.9,39.9,0,0,1,62.39,20.9a.19.19,0,0,1,0,.1c-.6.76-1.77,1.92-2.54,2h-.08c-.33,0-.89-.15-1-1.16a15,15,0,0,1,.37-3.21.14.14,0,0,1,0-.07c1.56-3.15,2.37-5.53,2.29-6.7-.06-.84-.42-1.16-1.29-1.16h-.3c-1.08.09-2.43,1.07-3.61,2.62a7.3,7.3,0,0,0-1.71,4.16,4.93,4.93,0,0,0,.6,2.19.26.26,0,0,1,0,.21,18.86,18.86,0,0,0-1,5.76c.17,2.45.87,3.26,2.63,3.12,1.33-.1,3.44-1.55,5-5.3a.24.24,0,0,1,.28-.14.24.24,0,0,1,.17.27,11.36,11.36,0,0,0-.08,1.93c.14,1.92,1,2.14,2.31,2.05s3-1.24,4.78-3.12C71.3,22.24,72.75,19.78,72.66,18.6Z"/><path class="cls-1" d="M81.87,13.7a2.94,2.94,0,0,0,.47-1.79c-.13-1.9-1.6-2.29-2.8-2.29h-.47a5.86,5.86,0,0,0-3.85,1.74,5,5,0,0,0-1.3,3.81,19.75,19.75,0,0,0,1.45,4.66,17.44,17.44,0,0,1,1.27,4,1.19,1.19,0,0,1-.26.89,1,1,0,0,1-.66.31c-1,.06-2.36-1.07-2.79-2.81A.31.31,0,0,1,73,22a2.81,2.81,0,0,0,.75-2c-.06-.85-1.07-2.25-2.12-2.25h-.09c-.84.06-1.27,1.15-1.48,2.06a13.67,13.67,0,0,0-.24,3.75c.23,3.18,2,5.15,4.75,5.15l.42,0c3.36-.25,6.61-2.4,6.31-6.62a13.4,13.4,0,0,0-1.51-4.49,9.7,9.7,0,0,1-1.08-2.95,1.09,1.09,0,0,1,.33-.94,1.67,1.67,0,0,1,1-.32A5.16,5.16,0,0,1,81.87,13.7Z"/></g></g></svg>